<?xml version="1.0" encoding="UTF-8"?>
<!DOCTYPE svg PUBLIC "-//W3C//DTD SVG 1.1//EN" "http://www.w3.org/Graphics/SVG/1.1/DTD/svg11.dtd">
<!-- Creator: CorelDRAW 2019 (64-Bit) -->
<svg xmlns="http://www.w3.org/2000/svg" xml:space="preserve" width="1.2646in" height="1.26459in" version="1.1" style="shape-rendering:geometricPrecision; text-rendering:geometricPrecision; image-rendering:optimizeQuality; fill-rule:evenodd; clip-rule:evenodd"
viewBox="0 0 474.37 474.36"
 xmlns:xlink="http://www.w3.org/1999/xlink">
 <defs>
  <style type="text/css">
   <![CDATA[
    .fil0 {fill:#E1F3FC}
    .fil1 {fill:#C7EAFB}
    .fil4 {fill:#C7EAFB}
    .fil2 {fill:#BE3190}
    .fil3 {fill:#943993}
   ]]>
  </style>
 </defs>
 <g id="Layer_x0020_1">
  <metadata id="CorelCorpID_0Corel-Layer"/>
  <path class="fil0" d="M237.2 237.2l-52.42 134.01c-21.19,-17.78 -139.14,8.53 -152.97,-15.43 -65.49,-113.43 -26.63,-258.48 86.81,-323.97 113.43,-65.49 258.48,-26.63 323.97,86.81l-205.39 118.58z"/>
  <circle class="fil1" cx="288.54" cy="207.57" r="173.49"/>
  <path class="fil2" d="M442.56 118.64c65.48,113.41 26.62,258.43 -86.79,323.91 -112.97,65.22 -257.29,26.91 -323.13,-85.48 -0.26,-0.44 -0.53,-0.87 -0.78,-1.32l-0 0 0 0c-16.37,-28.35 -6.66,-64.61 21.7,-80.98 28.35,-16.37 64.61,-6.65 80.98,21.7l0 -0c32.74,56.71 105.25,76.14 161.96,43.4 56.71,-32.74 76.14,-105.25 43.39,-161.96l102.68 -59.28z"/>
  <path class="fil3" d="M442.56 118.64c49.11,85.06 19.97,193.82 -65.1,242.93 -85.06,49.11 -193.82,19.97 -242.93,-65.1 32.74,56.71 105.25,76.14 161.96,43.4 56.71,-32.74 76.14,-105.25 43.4,-161.96l-0 -0c-16.37,-28.35 -6.65,-64.61 21.7,-80.98 28.35,-16.37 64.61,-6.65 80.98,21.7l0 -0z"/>
  <path class="fil4" d="M238.84 42.13c84.45,-8.31 159.65,53.42 167.96,137.87 0.21,2.11 -1.34,3.99 -3.45,4.2 -2.11,0.21 -3.99,-1.34 -4.2,-3.45 -7.89,-80.23 -79.33,-138.87 -159.56,-130.98 -2.11,0.21 -3.99,-1.34 -4.2,-3.45 -0.21,-2.11 1.34,-3.99 3.45,-4.2z"/>
  <path class="fil3" d="M247.08 40.36c84.45,-8.31 159.65,53.42 167.96,137.87 0.21,2.11 -1.34,3.99 -3.45,4.2 -2.11,0.21 -3.99,-1.34 -4.2,-3.45 -7.89,-80.23 -79.33,-138.87 -159.56,-130.98 -2.11,0.21 -3.99,-1.34 -4.2,-3.45 -0.21,-2.11 1.34,-3.99 3.45,-4.2z"/>
  <polygon class="fil2" points="231.25,108.34 98.94,116.28 171.98,5.67 185.48,62.8 142.29,91.24 188.52,68.07 "/>
  <path class="fil3" d="M231.25 108.34l-93.97 5.64c7.54,-12.21 16.62,-23.6 27.15,-33.84l24.09 -12.07 42.73 40.27zm-45.81 -45.69l0.03 0.14 -2.57 1.69c0.84,-0.62 1.68,-1.23 2.53,-1.83z"/>
 </g>
</svg>
