<?xml version="1.0" encoding="utf-8"?>
<!-- Generator: Adobe Illustrator 26.5.0, SVG Export Plug-In . SVG Version: 6.00 Build 0)  -->
<svg version="1.1" id="Layer_1" xmlns="http://www.w3.org/2000/svg" xmlns:xlink="http://www.w3.org/1999/xlink" x="0px" y="0px"
	 viewBox="0 0 738.92 595.28" style="enable-background:new 0 0 738.92 595.28;" xml:space="preserve">
<style type="text/css">
	.st0{fill:#004926;}
	.st1{fill:#F0B543;}
</style>
<g>
	<circle class="st0" cx="369.46" cy="297.64" r="242"/>
	<g>
		<g>
			<path class="st1" d="M532.69,424.36h-27.42v-5.09h-5.32v9.86c0,2.66-2.16,4.82-4.82,4.82h-4.5v5.32h4.5
				c5.41,0,9.82-4.26,10.11-9.59h27.45V424.36z"/>
			<path class="st1" d="M350.9,429.13c0,2.66-2.16,4.82-4.82,4.82h-4.5v5.32h4.5c5.59,0,10.14-4.55,10.14-10.14v-9.86h-5.32V429.13z
				"/>
			<path class="st1" d="M316.08,429.13c0,2.66-2.16,4.82-4.82,4.82h-4.5v5.32h4.5c5.59,0,10.14-4.55,10.14-10.14v-9.86h-5.32V429.13
				z"/>
			<path class="st1" d="M497.06,421.43c0-4.62-3.76-8.38-8.37-8.38h-6.61v5.32h6.61c1.68,0,3.05,1.37,3.05,3.05v3.05h-8.61h-0.71
				h-0.83c-1.6,0-2.91-1.3-2.91-2.91v-2.31h-5.32v2.31c0,1.6-1.3,2.91-2.91,2.91h-16.28v5.32h16.28c2.15,0,4.1-0.83,5.57-2.19
				c1.47,1.35,3.42,2.19,5.57,2.19h0.83h0.71h13.93V421.43z"/>
			<path class="st1" d="M331.83,429.81h0.42h14.4v-10.54h-5.32v5.22h-9.07h-0.42c-1.6,0-2.91-1.3-2.91-2.91v-15.03h-5.32v15.03
				C323.61,426.12,327.3,429.81,331.83,429.81z"/>
			<path class="st1" d="M311.09,429.81v-10.54h-5.32v5.22h-9.31h-5.3v5.32h5.3h0.26c-0.33,2.34-2.32,4.14-4.75,4.14h-7.39v-9.59
				h-5.32v14.91h12.72c5.36,0,9.76-4.19,10.11-9.46H311.09z"/>
			<path class="st1" d="M441.38,413.06h-0.27h-1.22h-0.42c-4.54,0-8.23,3.69-8.23,8.23h5.32c0-1.6,1.3-2.91,2.91-2.91h0.42h1.22
				h0.27c1.68,0,3.05,1.37,3.05,3.05v3.05h-12.11h-3.2c-1.6,0-2.91-1.3-2.91-2.91v-0.15c0-4.62-3.76-8.38-8.37-8.38h-7.77v5.32h7.77
				c1.68,0,3.05,1.37,3.05,3.05v0.15c0,1.6-1.3,2.91-2.91,2.91h-7.92v5.32h7.92c2.15,0,4.1-0.83,5.57-2.19
				c1.47,1.35,3.42,2.19,5.57,2.19h3.2h17.43v-8.38C449.76,416.81,446,413.06,441.38,413.06z"/>
			<polygon class="st1" points="524.39,415.16 521.26,415.16 521.26,409.86 515.67,409.86 515.67,415.16 512.54,415.16 
				512.54,420.48 524.39,420.48 			"/>
			<rect x="291.16" y="414.17" class="st1" width="11.85" height="5.32"/>
			<rect x="325.36" y="433.95" class="st1" width="11.85" height="5.32"/>
			<rect x="230.11" y="433.95" class="st1" width="11.85" height="5.32"/>
			<rect x="457.8" y="415.16" class="st1" width="11.85" height="5.32"/>
			<path class="st1" d="M379.71,421.58c0,1.6-1.3,2.91-2.91,2.91h-16.28v5.32h16.28c4.54,0,8.23-3.69,8.23-8.23v-2.31h-5.32V421.58z
				"/>
			<rect x="364.14" y="415.16" class="st1" width="11.85" height="5.32"/>
			<rect x="437.51" y="406.47" class="st1" width="5.59" height="5.32"/>
			<rect x="350.76" y="411.76" class="st1" width="5.59" height="5.32"/>
			<rect x="239.97" y="411.76" class="st1" width="5.59" height="5.32"/>
			<rect x="213.68" y="411.76" class="st1" width="5.59" height="5.32"/>
			<rect x="482.08" y="406.47" class="st1" width="18.41" height="5.32"/>
			<path class="st1" d="M401.3,415.91c-3.83,0-6.95,3.12-6.95,6.95c0,0.55,0.08,1.08,0.2,1.59c-1.44-0.17-2.57-1.39-2.57-2.87
				v-15.03h-5.32v15.03c0,4.54,3.69,8.23,8.23,8.23h6.41c3.83,0,6.95-3.12,6.95-6.95S405.13,415.91,401.3,415.91z M401.3,424.48
				c-0.9,0-1.62-0.73-1.62-1.63c0-0.9,0.73-1.62,1.62-1.62c0.9,0,1.62,0.73,1.62,1.62C402.93,423.76,402.2,424.48,401.3,424.48z"/>
			<path class="st1" d="M259.99,415.91c-3.83,0-6.95,3.12-6.95,6.95c0,0.55,0.08,1.08,0.2,1.59c-1.44-0.17-2.57-1.39-2.57-2.87
				v-2.31h-5.32v2.31c0,1.6-1.3,2.91-2.91,2.91h-0.84c-1.6,0-2.91-1.3-2.91-2.91v-2.31h-5.32v2.31c0,1.6-1.3,2.91-2.91,2.91h-0.84
				c-1.6,0-2.91-1.3-2.91-2.91v-2.31h-5.32v2.31v7.55c0,2.66-2.16,4.82-4.82,4.82h-0.47c-2.52,0-4.57-2.05-4.57-4.57v-10.11h-5.32
				v10.11c0,5.46,4.44,9.9,9.9,9.9h0.47c5.55,0,10.06-4.48,10.13-10.01c0.91,0.34,1.89,0.54,2.91,0.54h0.84
				c2.15,0,4.1-0.83,5.57-2.19c1.47,1.35,3.42,2.19,5.57,2.19h0.84c2.15,0,4.1-0.83,5.57-2.19c1.47,1.35,3.42,2.19,5.57,2.19h6.41
				c3.83,0,6.95-3.12,6.95-6.95S263.82,415.91,259.99,415.91z M259.99,424.48c-0.9,0-1.62-0.73-1.62-1.63c0-0.9,0.73-1.62,1.62-1.62
				s1.62,0.73,1.62,1.62C261.61,423.76,260.88,424.48,259.99,424.48z"/>
			<rect x="269.3" y="409.42" class="st1" width="5.32" height="19.72"/>
			<path class="st1" d="M261.8,407.25v6.22h5.32v-6.22c0-0.37,0.3-0.68,0.68-0.68h10.08v-5.32H267.8
				C264.49,401.25,261.8,403.94,261.8,407.25z"/>
		</g>
		<g>
			<polygon class="st1" points="375.91,361.92 402.44,388.44 419.86,371.03 428.97,361.92 402.44,335.38 			"/>
			
				<rect x="317.73" y="343.16" transform="matrix(0.7071 -0.7071 0.7071 0.7071 -157.3577 343.9428)" class="st1" width="37.52" height="37.52"/>
			
				<rect x="383.68" y="211.25" transform="matrix(0.7071 -0.7071 0.7071 0.7071 -44.7698 351.9263)" class="st1" width="37.52" height="37.52"/>
			<path class="st1" d="M509.74,244.83l-41.35-41.35l0,0l-6.44-6.44l0,0l-26.53-26.53l-26.53,26.53l26.53,26.53l0,0l6.44,6.44l0,0
				l42.87,42.88c12.74,12.74,12.74,33.4,0,46.15l-42.88,42.88l26.53,26.53l41.35-41.35C537.98,318.85,537.98,273.07,509.74,244.83z"
				/>
			
				<rect x="284.75" y="178.27" transform="matrix(0.7071 -0.7071 0.7071 0.7071 -50.4233 272.3304)" class="st1" width="37.52" height="37.52"/>
			<path class="st1" d="M477.86,278.89l-9.46-9.46l0,0l-6.44-6.44l0,0l-26.53-26.53l-26.53,26.53l0,0l0,0l-6.44,6.44l0,0
				l-26.53,26.53l0,0l-6.44,6.44l-6.44-6.44l6.44-6.44l0,0L396,262.99l0,0h0l-26.53-26.53l-26.53,26.53l0,0l0,0l-6.44,6.44l0,0
				l-26.53,26.53l0,0l0,0l0,0l-6.44,6.44l0,0l-6.44-6.44l0,0l6.44-6.44l0,0l0,0l26.53-26.53l0,0l6.44-6.44l0,0l26.53-26.53l0,0
				l6.44-6.44l0,0l26.53-26.53l-26.53-26.53l0,0l-26.53,26.53l0,0l-6.44,6.44l0,0l0,0l0,0L309.96,230l0,0l-6.44,6.44h0l0,0h0
				l-32.97-32.98l0,0l0,0l-29.96,29.96c0,0,0,0,0,0l-11.39,11.39c-28.24,28.24-28.24,74.02,0,102.26l5.87,5.87l35.48,35.48l0,0
				l26.53-26.53l-37.5-37.5c0,0,0,0,0,0l-5.38-5.38c-12.74-12.74-12.74-33.4,0-46.15l2.94-2.94c0,0,0,0,0,0l13.41-13.41l0,0l0,0v0
				l6.44,6.44l0,0h0l0,0l0,0l0,0l-0.01,0.01l0-0.01l0,0l-6.44,6.44l0,0l-9.46,9.46c-9.43,9.43-9.43,24.71,0,34.13l24.71,24.71
				l0-0.02l17.74,17.75l26.53-26.53l0,0l6.44-6.44l0,0l0,0l6.44,6.44l0,0l26.53,26.53l26.53-26.53l0,0l6.44-6.44l0,0l0,0l6.44,6.44
				l0,0l26.53,26.53l42.44-42.44C487.28,303.6,487.28,288.32,477.86,278.89z M435.42,302.4l-6.44-6.44l6.44-6.44l6.44,6.44
				L435.42,302.4z"/>
			<polygon class="st1" points="336.49,190.58 336.49,190.59 363.02,164.06 363.02,164.05 369.46,157.61 369.46,157.61 
				369.46,157.61 375.91,164.06 375.91,164.06 402.44,190.59 428.97,164.06 402.44,137.53 402.44,137.53 395.99,131.08 
				395.99,131.08 369.46,104.55 369.46,104.55 342.93,131.08 342.93,131.08 336.49,137.52 309.96,164.05 309.96,164.05 			"/>
		</g>
	</g>
</g>
</svg>
